<svg width="100" height="100" viewBox="0 0 100 100" fill="none" xmlns="http://www.w3.org/2000/svg">
<path d="M28.3302 52.44C23.0002 53.36 16.1602 57.44 16.1602 63.12C16.1602 68.8 23.0002 72.87 28.3302 73.81C35.8802 75.15 44.4002 71 48.8402 63.35C44.5302 55.43 35.9302 51.13 28.3302 52.44Z" stroke="white" stroke-width="5" stroke-miterlimit="10"/>
<path d="M69.3498 52.46C61.8098 51.12 53.2798 55.24 48.8398 62.92C53.1598 70.83 61.7598 75.13 69.3498 73.82C74.6898 72.9 81.5298 68.87 81.5298 63.14C81.5298 57.41 74.6498 53.4 69.3498 52.46Z" stroke="white" stroke-width="5" stroke-miterlimit="10"/>
<path d="M28.0051 38.0468H31.6904C31.6165 39.2547 31.2837 40.327 30.6921 41.2637C30.1087 42.2005 29.2911 42.9318 28.2393 43.4577C27.1957 43.9836 25.9385 44.2465 24.4677 44.2465C23.3173 44.2465 22.286 44.0493 21.3739 43.6549C20.4619 43.2522 19.6812 42.6771 19.0321 41.9293C18.3912 41.1816 17.9022 40.2777 17.5653 39.2177C17.2284 38.1577 17.06 36.9703 17.06 35.6556V34.4107C17.06 33.096 17.2326 31.9086 17.5777 30.8486C17.931 29.7804 18.4322 28.8724 19.0814 28.1247C19.7388 27.3769 20.5235 26.8017 21.4356 26.3991C22.3477 25.9965 23.3666 25.7951 24.4923 25.7951C25.9878 25.7951 27.2491 26.0663 28.2763 26.6086C29.3116 27.151 30.1128 27.8987 30.6797 28.8519C31.2549 29.8051 31.6001 30.8897 31.7151 32.1058H28.0174C27.9763 31.3827 27.8325 30.7706 27.586 30.2693C27.3395 29.7599 26.9656 29.3778 26.4644 29.123C25.9714 28.8601 25.314 28.7286 24.4923 28.7286C23.876 28.7286 23.3378 28.8437 22.8777 29.0737C22.4175 29.3038 22.0313 29.653 21.7191 30.1214C21.4068 30.5898 21.1726 31.1814 21.0165 31.8963C20.8686 32.603 20.7946 33.4329 20.7946 34.3861V35.6556C20.7946 36.5841 20.8645 37.4017 21.0042 38.1084C21.1439 38.8068 21.3575 39.3985 21.6451 39.8833C21.9409 40.3598 22.3189 40.7214 22.7791 40.9679C23.2474 41.2062 23.8103 41.3254 24.4677 41.3254C25.2401 41.3254 25.8769 41.2021 26.3781 40.9556C26.8794 40.7091 27.2615 40.3434 27.5244 39.8586C27.7956 39.3738 27.9558 38.7699 28.0051 38.0468ZM41.7728 26.054V44H38.0874V26.054H41.7728ZM47.2946 26.054V28.9505H32.6518V26.054H47.2946ZM63.7985 34.6079V35.4584C63.7985 36.8224 63.6137 38.0468 63.2439 39.1314C62.8741 40.2161 62.3523 41.1405 61.6785 41.9047C61.0048 42.6606 60.1995 43.2399 59.2627 43.6426C58.3342 44.0452 57.303 44.2465 56.169 44.2465C55.0433 44.2465 54.012 44.0452 53.0753 43.6426C52.1468 43.2399 51.3415 42.6606 50.6595 41.9047C49.9775 41.1405 49.4475 40.2161 49.0695 39.1314C48.6997 38.0468 48.5148 36.8224 48.5148 35.4584V34.6079C48.5148 33.2357 48.6997 32.0113 49.0695 30.9349C49.4393 29.8502 49.961 28.9258 50.6348 28.1616C51.3169 27.3975 52.1221 26.8141 53.0507 26.4114C53.9874 26.0088 55.0186 25.8075 56.1444 25.8075C57.2783 25.8075 58.3096 26.0088 59.2381 26.4114C60.1748 26.8141 60.9801 27.3975 61.6539 28.1616C62.3359 28.9258 62.8618 29.8502 63.2316 30.9349C63.6096 32.0113 63.7985 33.2357 63.7985 34.6079ZM60.0639 35.4584V34.5833C60.0639 33.6301 59.9776 32.792 59.8051 32.0689C59.6325 31.3458 59.3778 30.7377 59.0409 30.2447C58.704 29.7516 58.2931 29.3819 57.8083 29.1354C57.3235 28.8806 56.7689 28.7533 56.1444 28.7533C55.5199 28.7533 54.9652 28.8806 54.4804 29.1354C54.0038 29.3819 53.5971 29.7516 53.2602 30.2447C52.9315 30.7377 52.6809 31.3458 52.5083 32.0689C52.3358 32.792 52.2495 33.6301 52.2495 34.5833V35.4584C52.2495 36.4033 52.3358 37.2415 52.5083 37.9728C52.6809 38.6959 52.9356 39.3081 53.2725 39.8093C53.6094 40.3023 54.0203 40.6762 54.5051 40.9309C54.9899 41.1857 55.5445 41.313 56.169 41.313C56.7935 41.313 57.3482 41.1857 57.833 40.9309C58.3178 40.6762 58.7245 40.3023 59.0532 39.8093C59.3819 39.3081 59.6325 38.6959 59.8051 37.9728C59.9776 37.2415 60.0639 36.4033 60.0639 35.4584ZM81.079 26.054V44H77.3813V28.9505H70.1709V44H66.4732V26.054H81.079Z" fill="white"/>
</svg>
