<svg width="100" height="100" viewBox="0 0 100 100" fill="none" xmlns="http://www.w3.org/2000/svg">
<path d="M23.3902 42.17C29.04 42.17 33.6202 37.5898 33.6202 31.94C33.6202 26.2901 29.04 21.71 23.3902 21.71C17.7403 21.71 13.1602 26.2901 13.1602 31.94C13.1602 37.5898 17.7403 42.17 23.3902 42.17Z" stroke="white" stroke-width="5" stroke-miterlimit="10"/>
<path d="M75.25 42.17C80.8999 42.17 85.48 37.5898 85.48 31.94C85.48 26.2901 80.8999 21.71 75.25 21.71C69.6002 21.71 65.02 26.2901 65.02 31.94C65.02 37.5898 69.6002 42.17 75.25 42.17Z" stroke="white" stroke-width="5" stroke-miterlimit="10"/>
<path d="M75.2501 34.86C76.8627 34.86 78.1701 33.5527 78.1701 31.94C78.1701 30.3273 76.8627 29.02 75.2501 29.02C73.6374 29.02 72.3301 30.3273 72.3301 31.94C72.3301 33.5527 73.6374 34.86 75.2501 34.86Z" fill="white"/>
<path d="M23.0601 34.86C24.6728 34.86 25.9801 33.5527 25.9801 31.94C25.9801 30.3273 24.6728 29.02 23.0601 29.02C21.4475 29.02 20.1401 30.3273 20.1401 31.94C20.1401 33.5527 21.4475 34.86 23.0601 34.86Z" fill="white"/>
<path d="M23.3501 21.71H74.4401" stroke="white" stroke-width="5" stroke-miterlimit="10"/>
<path d="M23.3501 52.8599H74.4401" stroke="white" stroke-width="5" stroke-miterlimit="10"/>
<path d="M24.27 61.6099H75.37" stroke="white" stroke-width="5" stroke-miterlimit="10"/>
<path d="M32.6299 30.2202H65.1599" stroke="white" stroke-width="5" stroke-miterlimit="10"/>
<path d="M23.3901 42.1699V81.0799H76.2501V42.1699" stroke="white" stroke-width="5" stroke-miterlimit="10"/>
<path d="M39.02 59.5298V81.0798" stroke="white" stroke-width="5" stroke-miterlimit="10"/>
<path d="M59.0601 59.5298V81.0798" stroke="white" stroke-width="5" stroke-miterlimit="10"/>
</svg>
