<svg width="100" height="100" viewBox="0 0 100 100" fill="none" xmlns="http://www.w3.org/2000/svg">
<path d="M56.2302 41.9299C60.4747 42.3844 64.4402 44.2632 67.4802 47.2599C70.8967 50.764 72.8369 55.4464 72.9002 60.3399V80.9299H26.4502V60.3399C26.448 58.4752 26.7278 56.6209 27.2802 54.8399C28.1846 51.986 29.7545 49.388 31.8602 47.2599C34.9076 44.2852 38.8588 42.4099 43.0902 41.9299" stroke="white" stroke-width="5" stroke-miterlimit="10"/>
<path d="M49.6702 44.0899C56.4081 44.0899 61.8702 38.6278 61.8702 31.8899C61.8702 25.1521 56.4081 19.6899 49.6702 19.6899C42.9323 19.6899 37.4702 25.1521 37.4702 31.8899C37.4702 38.6278 42.9323 44.0899 49.6702 44.0899Z" stroke="white" stroke-width="5" stroke-miterlimit="10"/>
<path d="M20.61 74.5901H16V57.4201C16.2347 53.9429 17.236 50.5607 18.9321 47.5161C20.6281 44.4714 22.9769 41.8399 25.81 39.8101C24.6036 37.6413 24.1433 35.1361 24.5 32.6801C24.9338 30.501 25.9549 28.4819 27.4531 26.841C28.9512 25.2001 30.8693 23.9999 33 23.3701" stroke="white" stroke-width="5" stroke-miterlimit="10"/>
<path d="M79.2 74.5901H83.84V57.4201C83.5963 53.9417 82.5881 50.5599 80.8872 47.5159C79.1863 44.4719 76.8347 41.8408 74 39.8101C75.2016 37.6395 75.6615 35.136 75.31 32.6801C74.8715 30.4999 73.8462 28.4807 72.3449 26.8401C70.8435 25.1996 68.9229 23.9998 66.79 23.3701" stroke="white" stroke-width="5" stroke-miterlimit="10"/>
</svg>
