<svg width="100" height="100" viewBox="0 0 100 100" fill="none" xmlns="http://www.w3.org/2000/svg">
<path d="M45.6602 50.8702V59.2202H65.6602C65.6183 65.7299 63.0145 71.9612 58.4123 76.5652C53.8101 81.1693 47.5799 83.7757 41.0702 83.8202C27.0002 83.8202 16.4002 71.6302 16.4302 59.1802C16.4602 49.0002 23.6102 40.0002 31.8202 36.7302C33.9222 35.8926 36.1425 35.3898 38.4002 35.2402" stroke="white" stroke-width="5" stroke-miterlimit="10"/>
<path d="M28.7798 61.6198L28.8398 45.6698L44.1998 29.2998L51.8098 34.4498L51.6298 46.3698H75.9998C74.3131 57.9365 72.6198 69.5065 70.9198 81.0798" stroke="white" stroke-width="5" stroke-miterlimit="10"/>
<path d="M54.4302 27.0302C57.4788 27.0302 59.9502 24.5588 59.9502 21.5102C59.9502 18.4616 57.4788 15.9902 54.4302 15.9902C51.3815 15.9902 48.9102 18.4616 48.9102 21.5102C48.9102 24.5588 51.3815 27.0302 54.4302 27.0302Z" stroke="white" stroke-width="5" stroke-miterlimit="10"/>
</svg>
