<svg width="100" height="100" viewBox="0 0 100 100" fill="none" xmlns="http://www.w3.org/2000/svg">
<path d="M65.0002 34.8999C63.1974 36.8106 60.9073 38.1929 58.3767 38.8978C55.8461 39.6027 53.1712 39.6034 50.6402 38.8999L45.2502 44.0999C44.4281 44.8735 43.337 45.2963 42.2083 45.2787C41.0796 45.2611 40.0022 44.8044 39.2047 44.0056C38.4071 43.2067 37.9522 42.1286 37.9365 40.9999C37.9207 39.8712 38.3453 38.7807 39.1202 37.9599L50.1902 26.8699C51.1302 26.0499 58.4802 19.7899 68.2902 21.6799C72.7298 22.587 76.7569 24.9057 79.7702 28.2899" stroke="white" stroke-width="5" stroke-miterlimit="10"/>
<path d="M78.76 27.23C79.48 27.9 86.11 34.3 84.97 43.87C84.6219 46.4831 83.7607 49.0016 82.4358 51.2807C81.1109 53.5598 79.3485 55.5544 77.25 57.15" stroke="white" stroke-width="5" stroke-miterlimit="10"/>
<path d="M48.3802 27.52C40.1502 20.12 27.7902 20.46 20.5802 27.57C14.3102 33.75 13.0002 44 17.7802 52.16L21.4702 56.77" stroke="white" stroke-width="5" stroke-miterlimit="10"/>
<path d="M28.9573 51.8448L28.9502 51.8378C27.4522 50.3366 25.0208 50.334 23.5197 51.8321L19.7539 55.5899C18.2527 57.088 18.2502 59.5193 19.7482 61.0205L19.7553 61.0276C21.2533 62.5288 23.6847 62.5313 25.1859 61.0333L28.9516 57.2754C30.4528 55.7774 30.4553 53.346 28.9573 51.8448Z" stroke="white" stroke-width="5" stroke-miterlimit="10"/>
<path d="M36.1219 57.4217L36.1148 57.4147C34.6167 55.9135 32.1854 55.9109 30.6842 57.409L26.9185 61.1668C25.4173 62.6649 25.4147 65.0962 26.9128 66.5974L26.9198 66.6045C28.4179 68.1057 30.8492 68.1082 32.3504 66.6102L36.1162 62.8523C37.6173 61.3543 37.6199 58.9229 36.1219 57.4217Z" stroke="white" stroke-width="5" stroke-miterlimit="10"/>
<path d="M42.8548 63.0423L42.8477 63.0353C41.3497 61.5341 38.9183 61.5315 37.4171 63.0296L33.6514 66.7875C32.1502 68.2855 32.1477 70.7168 33.6457 72.218L33.6528 72.2251C35.1508 73.7263 37.5821 73.7288 39.0833 72.2308L42.8491 68.4729C44.3503 66.9749 44.3528 64.5435 42.8548 63.0423Z" stroke="white" stroke-width="5" stroke-miterlimit="10"/>
<path d="M48.1388 74.2811C49.5228 72.9001 49.5251 70.6587 48.1441 69.2748C46.7631 67.8909 44.5217 67.8886 43.1378 69.2696L39.7755 72.6248C38.3916 74.0058 38.3893 76.2472 39.7703 77.6311C41.1513 79.015 43.3927 79.0174 44.7766 77.6364L48.1388 74.2811Z" stroke="white" stroke-width="5" stroke-miterlimit="10"/>
<path d="M57.75 46.6401C61.7033 50.6801 65.6467 54.7235 69.58 58.7701C71.73 61.3101 75.21 61.1401 76.58 59.5301C77.74 58.1301 77.58 55.3301 75.53 53.4501L59.91 37.8701" stroke="white" stroke-width="5" stroke-miterlimit="10"/>
<path d="M52.29 52.1699L64.12 64.2999C66.27 66.8399 69.75 66.6699 71.12 65.0599C72.28 63.6699 72.12 60.8699 70.12 58.9899L57.71 46.6699" stroke="white" stroke-width="5" stroke-miterlimit="10"/>
<path d="M46.6602 57.8L58.4902 69.9401C60.6402 72.4701 64.1202 72.3 65.4902 70.7C66.6502 69.3 66.4902 66.5001 64.4902 64.6201L52.0802 52.3" stroke="white" stroke-width="5" stroke-miterlimit="10"/>
<path d="M49.3901 73.2099L53.7501 77.7699C54.4597 78.2608 55.2917 78.545 56.1533 78.5909C57.0149 78.6368 57.8724 78.4426 58.6301 78.0299C59.7223 77.3009 60.503 76.1905 60.8193 74.916C61.1356 73.6416 60.9647 72.2949 60.3401 71.1399" stroke="white" stroke-width="5" stroke-miterlimit="10"/>
</svg>
