<svg width="100" height="100" viewBox="0 0 100 100" fill="none" xmlns="http://www.w3.org/2000/svg">
<path d="M67.5802 68.5998C73.8872 68.5998 79.0002 63.4869 79.0002 57.1798C79.0002 50.8727 73.8872 45.7598 67.5802 45.7598C61.2731 45.7598 56.1602 50.8727 56.1602 57.1798C56.1602 63.4869 61.2731 68.5998 67.5802 68.5998Z" stroke="white" stroke-width="5" stroke-linejoin="bevel"/>
<path d="M69.3702 45.4302C69.4458 44.9003 69.4825 44.3655 69.4802 43.8302C69.3923 40.8587 68.15 38.0382 66.017 35.9674C63.884 33.8966 61.0281 32.7383 58.0552 32.7383C55.0823 32.7383 52.2264 33.8966 50.0934 35.9674C47.9604 38.0382 46.7181 40.8587 46.6302 43.8302C46.6336 44.5012 46.6972 45.1706 46.8202 45.8302C43.8974 46.1295 41.2025 47.5437 39.2956 49.7789C37.3887 52.014 36.4166 54.8981 36.5815 57.8315C36.7463 60.7649 38.0354 63.5219 40.1806 65.5294C42.3259 67.5368 45.1623 68.6403 48.1002 68.6102C49.9817 68.5906 51.8305 68.1155 53.4884 67.2256C55.1463 66.3357 56.564 65.0575 57.6202 63.5002" stroke="white" stroke-width="5" stroke-miterlimit="10"/>
<path d="M59.7099 31.8399C59.7699 31.3958 59.7967 30.9479 59.7899 30.4999C59.8063 28.9118 59.4851 27.3384 58.8475 25.8839C58.2099 24.4294 57.2705 23.1269 56.0916 22.0628C54.9127 20.9987 53.5211 20.1972 52.0091 19.7115C50.4971 19.2258 48.8991 19.0669 47.321 19.2453C45.7429 19.4237 44.2208 19.9354 42.8554 20.7465C41.49 21.5576 40.3125 22.6496 39.401 23.95C38.4894 25.2505 37.8646 26.7298 37.5679 28.29C37.2712 29.8502 37.3094 31.4556 37.6799 32.9999C36.2139 33.0764 34.7798 33.4563 33.4682 34.1155C32.1565 34.7748 30.996 35.6991 30.0599 36.8299C29.0754 38.1312 28.3976 39.6381 28.0773 41.2381C27.7569 42.8381 27.8023 44.4898 28.2099 46.0699C25.4113 46.4829 22.8726 47.9396 21.1039 50.1475C19.3353 52.3554 18.4676 55.1508 18.6753 57.9721C18.8829 60.7934 20.1506 63.4316 22.2235 65.3567C24.2964 67.2818 27.021 68.3511 29.8499 68.3499C35.1299 68.3499 38.5099 64.2499 38.9599 63.6699" stroke="white" stroke-width="5" stroke-miterlimit="10"/>
<path d="M29.7598 80.3801V68.3901" stroke="white" stroke-width="5" stroke-miterlimit="10"/>
<path d="M48.3701 80.3801V68.3901" stroke="white" stroke-width="5" stroke-miterlimit="10"/>
<path d="M67.5801 80.3801V68.3901" stroke="white" stroke-width="5" stroke-miterlimit="10"/>
</svg>
